<svg width="380" height="40" viewBox="0 0 380 40" fill="none" xmlns="http://www.w3.org/2000/svg">
<path fill-rule="evenodd" clip-rule="evenodd" d="M68.3174 29.5312V13.2143H72.6997V8.19196H68.3174V0H62.1474V8.19196H58.3538V13.2143H62.1474V29.5312H68.3174ZM6.21366 18.2366V29.5312H0V8.19196H6.21366V11.2946C6.72238 10.1935 7.44913 9.32292 8.3939 8.68304C9.41134 8.07292 10.5015 7.76786 11.6642 7.76786C14.9637 7.76786 17.1948 9.01786 18.3576 11.5179C19.8837 8.9881 21.9549 7.72321 24.5712 7.72321C27.1875 7.72321 29.186 8.56399 30.5669 10.2455C31.9477 11.9271 32.6381 14.3155 32.6381 17.4107V29.5312H26.4898V18.1473C26.4898 16.8378 26.1773 15.8036 25.5523 15.0446C24.8983 14.2857 24.0407 13.9062 22.9797 13.9062C21.9186 13.9062 21.0683 14.2634 20.4288 14.9777C19.7892 15.692 19.4695 16.7783 19.4695 18.2366V29.5312H13.2558V18.0134C13.1977 16.7336 12.8561 15.7292 12.2311 15C11.5916 14.2708 10.7631 13.9062 9.74564 13.9062C8.7282 13.9062 7.88517 14.256 7.21657 14.9554C6.54797 15.6548 6.21366 16.7485 6.21366 18.2366ZM57.4981 8.19196L44.6347 40H38.0722L43.0868 27.3438L35.0417 8.19196H41.6478L46.2481 20.2902L50.892 8.19196H57.4981ZM95.2923 25.6473C93.3591 28.5491 90.1833 29.9926 85.7646 29.9777C82.6978 29.9777 80.1106 28.9435 78.003 26.875C75.9245 24.7768 74.8853 22.0833 74.8853 18.7946C74.8853 15.506 75.9245 12.8348 78.003 10.7812C80.0815 8.72768 82.6542 7.70833 85.721 7.72321C88.7879 7.72321 91.3388 8.76488 93.3737 10.8482C95.4085 12.9315 96.4333 15.6399 96.4478 18.9732C96.4478 19.003 96.4187 19.6577 96.3606 20.9375H81.0771C81.1934 22.0685 81.7603 22.9464 82.7777 23.5714C83.7952 24.1964 84.9434 24.5089 86.2225 24.5089C88.2138 24.5089 89.7327 23.8393 90.7792 22.5L95.2923 25.6473ZM90.1905 16.9643H81.1644C81.3969 15.8036 81.9783 14.8958 82.9085 14.2411C83.8097 13.5863 84.7835 13.2738 85.83 13.3036C86.8766 13.3333 87.8286 13.6607 88.6862 14.2857C89.5437 14.9107 90.0452 15.8036 90.1905 16.9643ZM113.088 29.2188C111.911 29.7247 110.785 29.9628 109.709 29.933C106.846 29.933 104.36 28.9062 102.253 26.8527C100.145 24.7991 99.0912 22.128 99.0912 18.8393C99.0912 15.5506 100.181 12.8795 102.362 10.8259C104.542 8.77232 106.991 7.7381 109.709 7.72321C110.814 7.72321 111.947 7.96875 113.11 8.45982C114.273 8.95089 115.167 9.6503 115.792 10.558V8.19196H121.94V29.5312H115.792V27.0982C115.167 28.006 114.266 28.7128 113.088 29.2188ZM110.712 23.9062C109.302 23.9062 108.088 23.4301 107.071 22.4777C106.024 21.5253 105.501 20.3199 105.501 18.8616C105.501 17.4182 106.024 16.2054 107.071 15.2232C108.205 14.256 109.447 13.7723 110.799 13.7723C112.151 13.7723 113.321 14.2485 114.309 15.2009C115.298 16.1533 115.792 17.3735 115.792 18.8616C115.792 20.3497 115.298 21.5625 114.309 22.5C113.321 23.4375 112.122 23.9062 110.712 23.9062ZM133.522 18.2366V29.5312H127.309V8.19196H133.522V11.2946C134.031 10.1935 134.758 9.32292 135.703 8.68304C136.72 8.07292 137.81 7.76786 138.973 7.76786C142.272 7.76786 144.504 9.01786 145.666 11.5179C147.193 8.9881 149.264 7.72321 151.88 7.72321C154.496 7.72321 156.495 8.56399 157.876 10.2455C159.256 11.9271 159.947 14.3155 159.947 17.4107V29.5312H153.799V18.1473C153.799 16.8378 153.486 15.8036 152.861 15.0446C152.207 14.2857 151.35 13.9062 150.288 13.9062C149.227 13.9062 148.377 14.2634 147.738 14.9777C147.098 15.692 146.778 16.7783 146.778 18.2366V29.5312H140.565V18.0134C140.506 16.7336 140.165 15.7292 139.54 15C138.9 14.2708 138.072 13.9062 137.054 13.9062C136.037 13.9062 135.194 14.256 134.525 14.9554C133.857 15.6548 133.522 16.7485 133.522 18.2366Z" fill="white"/>
<g clip-path="url(#clip0_0_4209)">
<path d="M241.17 27V13.68H243.366L243.384 17.91L243.258 20.178C243.618 19.41 244.092 18.816 244.68 18.396C245.28 17.976 245.964 17.766 246.732 17.766C247.752 17.766 248.52 18.12 249.036 18.828C249.564 19.524 249.822 20.526 249.81 21.834L249.774 27H247.578L247.614 22.014C247.626 21.306 247.512 20.766 247.272 20.394C247.044 20.01 246.672 19.818 246.156 19.818C245.76 19.818 245.394 19.932 245.058 20.16C244.722 20.388 244.428 20.778 244.176 21.33C243.924 21.87 243.726 22.608 243.582 23.544C243.438 24.468 243.36 25.62 243.348 27H241.17ZM256.282 17.766C257.638 17.766 258.7 18.174 259.468 18.99C260.248 19.794 260.638 20.886 260.638 22.266C260.638 23.202 260.44 24.042 260.044 24.786C259.66 25.518 259.114 26.1 258.406 26.532C257.698 26.952 256.876 27.162 255.94 27.162C254.584 27.162 253.516 26.76 252.736 25.956C251.968 25.152 251.584 24.054 251.584 22.662C251.584 21.726 251.776 20.892 252.16 20.16C252.556 19.416 253.102 18.834 253.798 18.414C254.506 17.982 255.334 17.766 256.282 17.766ZM256.012 25.236C256.72 25.236 257.29 24.966 257.722 24.426C258.154 23.886 258.37 23.166 258.37 22.266C258.37 21.45 258.178 20.82 257.794 20.376C257.422 19.932 256.906 19.71 256.246 19.71C255.514 19.71 254.932 19.98 254.5 20.52C254.068 21.06 253.852 21.774 253.852 22.662C253.852 23.478 254.038 24.114 254.41 24.57C254.794 25.014 255.328 25.236 256.012 25.236ZM262.545 27V17.91H264.741L264.633 20.142C265.005 19.314 265.485 18.714 266.073 18.342C266.673 17.958 267.315 17.766 267.999 17.766C268.659 17.766 269.241 17.946 269.745 18.306C270.249 18.666 270.609 19.23 270.825 19.998C271.209 19.242 271.713 18.684 272.337 18.324C272.973 17.952 273.627 17.766 274.299 17.766C275.307 17.766 276.069 18.12 276.585 18.828C277.113 19.524 277.371 20.526 277.359 21.834L277.323 27H275.127L275.163 21.906C275.163 21.246 275.043 20.736 274.803 20.376C274.563 20.004 274.191 19.818 273.687 19.818C273.339 19.818 273.003 19.932 272.679 20.16C272.367 20.376 272.085 20.754 271.833 21.294C271.593 21.834 271.401 22.572 271.257 23.508C271.113 24.432 271.035 25.596 271.023 27H268.845V21.906C268.845 21.246 268.731 20.736 268.503 20.376C268.275 20.004 267.909 19.818 267.405 19.818C267.057 19.818 266.721 19.932 266.397 20.16C266.085 20.376 265.803 20.754 265.551 21.294C265.311 21.834 265.113 22.572 264.957 23.508C264.813 24.432 264.735 25.596 264.723 27H262.545ZM283.916 27.162C282.932 27.162 282.08 26.982 281.36 26.622C280.652 26.25 280.106 25.722 279.722 25.038C279.338 24.354 279.146 23.538 279.146 22.59C279.146 21.642 279.344 20.808 279.74 20.088C280.136 19.356 280.67 18.786 281.342 18.378C282.026 17.97 282.8 17.766 283.664 17.766C285.068 17.766 286.1 18.246 286.76 19.206C287.432 20.154 287.666 21.468 287.462 23.148H281.378C281.426 23.784 281.684 24.294 282.152 24.678C282.62 25.062 283.262 25.254 284.078 25.254C284.462 25.254 284.846 25.17 285.23 25.002C285.626 24.834 285.962 24.576 286.238 24.228L287.516 25.524C287.108 26.04 286.61 26.442 286.022 26.73C285.446 27.018 284.744 27.162 283.916 27.162ZM283.7 19.422C283.088 19.422 282.584 19.614 282.188 19.998C281.792 20.382 281.54 20.898 281.432 21.546H285.572C285.596 20.802 285.434 20.262 285.086 19.926C284.738 19.59 284.276 19.422 283.7 19.422Z" fill="white"/>
<path d="M338.666 17.946V27H336.434L336.506 25.416C336.182 25.968 335.756 26.4 335.228 26.712C334.712 27.012 334.118 27.162 333.446 27.162C332.654 27.162 331.982 26.982 331.43 26.622C330.878 26.25 330.458 25.74 330.17 25.092C329.882 24.444 329.738 23.7 329.738 22.86C329.738 21.852 329.936 20.97 330.332 20.214C330.728 19.446 331.268 18.846 331.952 18.414C332.648 17.982 333.428 17.766 334.292 17.766C334.868 17.766 335.378 17.892 335.822 18.144C336.266 18.384 336.608 18.708 336.848 19.116L337.064 17.946H338.666ZM334.454 19.71C333.71 19.71 333.116 19.992 332.672 20.556C332.228 21.12 332.006 21.858 332.006 22.77C332.006 23.55 332.174 24.156 332.51 24.588C332.846 25.02 333.308 25.236 333.896 25.236C334.376 25.236 334.808 25.098 335.192 24.822C335.588 24.546 335.9 24.162 336.128 23.67C336.356 23.178 336.47 22.614 336.47 21.978C336.47 21.27 336.29 20.718 335.93 20.322C335.57 19.914 335.078 19.71 334.454 19.71ZM340.998 27V13.68H343.194V17.91L343.122 19.566C343.446 18.99 343.866 18.546 344.382 18.234C344.91 17.922 345.516 17.766 346.2 17.766C347.004 17.766 347.682 17.952 348.234 18.324C348.786 18.696 349.206 19.206 349.494 19.854C349.782 20.502 349.926 21.24 349.926 22.068C349.926 23.076 349.728 23.964 349.332 24.732C348.936 25.5 348.39 26.1 347.694 26.532C347.01 26.952 346.236 27.162 345.372 27.162C344.784 27.162 344.268 27.042 343.824 26.802C343.38 26.55 343.044 26.22 342.816 25.812L342.6 27H340.998ZM345.192 25.236C345.948 25.236 346.548 24.948 346.992 24.372C347.436 23.796 347.658 23.052 347.658 22.14C347.658 21.372 347.49 20.778 347.154 20.358C346.818 19.926 346.356 19.71 345.768 19.71C345.276 19.71 344.838 19.848 344.454 20.124C344.07 20.388 343.764 20.766 343.536 21.258C343.308 21.738 343.194 22.296 343.194 22.932C343.194 23.64 343.374 24.204 343.734 24.624C344.094 25.032 344.58 25.236 345.192 25.236ZM356.092 17.766C357.448 17.766 358.51 18.174 359.278 18.99C360.058 19.794 360.448 20.886 360.448 22.266C360.448 23.202 360.25 24.042 359.854 24.786C359.47 25.518 358.924 26.1 358.216 26.532C357.508 26.952 356.686 27.162 355.75 27.162C354.394 27.162 353.326 26.76 352.546 25.956C351.778 25.152 351.394 24.054 351.394 22.662C351.394 21.726 351.586 20.892 351.97 20.16C352.366 19.416 352.912 18.834 353.608 18.414C354.316 17.982 355.144 17.766 356.092 17.766ZM355.822 25.236C356.53 25.236 357.1 24.966 357.532 24.426C357.964 23.886 358.18 23.166 358.18 22.266C358.18 21.45 357.988 20.82 357.604 20.376C357.232 19.932 356.716 19.71 356.056 19.71C355.324 19.71 354.742 19.98 354.31 20.52C353.878 21.06 353.662 21.774 353.662 22.662C353.662 23.478 353.848 24.114 354.22 24.57C354.604 25.014 355.138 25.236 355.822 25.236ZM365.254 27.162C364.246 27.162 363.484 26.82 362.968 26.136C362.464 25.452 362.218 24.504 362.23 23.292L362.266 17.91H364.462L364.426 23.094C364.414 23.718 364.522 24.21 364.75 24.57C364.978 24.93 365.338 25.11 365.83 25.11C366.214 25.11 366.568 24.996 366.892 24.768C367.228 24.54 367.516 24.156 367.756 23.616C367.996 23.064 368.182 22.326 368.314 21.402C368.458 20.466 368.53 19.302 368.53 17.91H370.654V27H368.44L368.566 24.93C368.206 25.662 367.738 26.22 367.162 26.604C366.598 26.976 365.962 27.162 365.254 27.162ZM376.842 27.162C375.75 27.162 374.898 26.862 374.286 26.262C373.686 25.662 373.392 24.876 373.404 23.904L373.476 19.746H371.928V17.91H373.512L373.53 16.038H375.726L375.69 17.91H378.66V19.746H375.672L375.618 23.67C375.606 24.162 375.726 24.552 375.978 24.84C376.242 25.116 376.632 25.254 377.148 25.254C377.424 25.254 377.682 25.218 377.922 25.146C378.162 25.074 378.414 24.942 378.678 24.75L379.326 26.442C379.05 26.682 378.696 26.862 378.264 26.982C377.832 27.102 377.358 27.162 376.842 27.162Z" fill="white"/>
</g>
<defs>
<clipPath id="clip0_0_4209">
<rect width="140" height="28" fill="white" transform="translate(240 6)"/>
</clipPath>
</defs>
</svg>
